<svg width="1868" height="1347" viewBox="0 0 1868 1347" fill="none" xmlns="http://www.w3.org/2000/svg">
<path d="M297.208 633.738L297.208 1183.09L-178.543 908.413L297.208 633.738Z" stroke="#EBEBEB"/>
<circle cx="296.896" cy="1182.88" r="5" transform="rotate(-30 296.896 1182.88)" fill="#F2F2F2"/>
<circle cx="297.053" cy="633.154" r="5" transform="rotate(-30 297.053 633.154)" fill="#F2F2F2"/>
<path d="M425.594 75.3811L425.594 331.777L203.549 203.579L425.594 75.3811Z" stroke="#EBEBEB"/>
<path d="M1620.56 747.777L1620.56 491.381L1842.61 619.579L1620.56 747.777Z" stroke="#EBEBEB"/>
<path d="M1303.62 610.625L827.874 885.3L827.874 335.95L1303.62 610.625Z" stroke="#EBEBEB"/>
<ellipse cx="819.739" cy="335.198" rx="5" ry="5" transform="rotate(30 819.739 335.198)" fill="#F2F2F2"/>
<circle r="5" transform="matrix(0.866029 0.499994 -0.500006 0.866022 819.896 884.926)" fill="#F2F2F2"/>
<circle r="5" transform="matrix(0.866023 0.500004 -0.499996 0.866028 1274.05 610.198)" fill="#F2F2F2"/>
</svg>
